<svg xmlns="http://www.w3.org/2000/svg" version="1.0" width="1200.000000pt" height="1200.000000pt" viewBox="0 0 1200.000000 1200.000000" preserveAspectRatio="xMidYMid meet" transform="matrix(-1, 0, 0, 1, 0, 0)">

<g transform="translate(0.000000,1200.000000) scale(0.100000,-0.100000)" fill="#000000" stroke="none">
<path d="M3436 11931 c5 -10 3 -13 -7 -9 -19 7 -22 -24 -6 -55 7 -12 39 -58 71 -101 l59 -79 -23 -19 c-12 -10 -34 -21 -49 -24 -14 -3 -45 -14 -69 -25 -23 -10 -48 -19 -55 -19 -7 0 -29 -9 -50 -20 -20 -11 -45 -20 -54 -20 -10 0 -31 -9 -48 -20 -16 -11 -39 -20 -50 -20 -11 0 -35 -9 -53 -20 -18 -11 -38 -20 -45 -20 -7 0 -30 -9 -52 -20 -22 -11 -44 -20 -50 -20 -5 0 -32 -11 -60 -25 -27 -13 -58 -25 -68 -25 -9 0 -34 -9 -54 -20 -21 -11 -44 -20 -51 -20 -7 0 -30 -9 -52 -20 -22 -11 -48 -20 -60 -20 -11 0 -37 -9 -57 -20 -21 -11 -49 -20 -63 -20 -14 0 -38 -9 -55 -20 -16 -11 -41 -20 -55 -20 -14 0 -43 -9 -65 -20 -22 -11 -49 -19 -60 -20 -12 0 -38 -9 -60 -20 -22 -11 -48 -20 -60 -20 -11 0 -38 -9 -60 -19 -22 -10 -58 -21 -80 -25 -22 -4 -50 -14 -62 -22 -12 -7 -41 -16 -65 -20 -24 -3 -53 -12 -65 -20 -12 -7 -41 -17 -65 -20 -24 -4 -61 -15 -83 -25 -22 -10 -51 -19 -65 -19 -14 0 -38 -7 -54 -15 -15 -8 -37 -15 -48 -15 -15 0 -18 4 -12 23 4 12 13 31 20 42 8 11 14 29 15 40 0 11 13 43 29 70 16 28 46 82 66 120 20 39 67 129 105 200 38 72 74 141 80 155 31 66 72 148 100 200 32 59 48 105 40 113 -12 12 -122 14 -140 2 -10 -6 -12 -4 -6 6 7 12 6 12 -7 1 -13 -10 -17 -10 -21 0 -4 11 -6 10 -6 0 -1 -7 -6 -10 -12 -7 -6 4 -36 6 -67 6 -31 -1 -69 -2 -83 -2 -40 0 -92 -61 -149 -174 -11 -22 -40 -76 -64 -120 -24 -44 -68 -127 -96 -185 -29 -58 -57 -112 -61 -120 -5 -8 -14 -26 -20 -40 -6 -14 -15 -32 -20 -40 -5 -8 -14 -26 -20 -40 -6 -14 -19 -43 -29 -65 -28 -64 -51 -136 -61 -192 -5 -29 -18 -67 -29 -86 -19 -32 -24 -34 -92 -41 -40 -4 -81 -12 -93 -20 -11 -7 -53 -16 -93 -20 -41 -3 -84 -12 -95 -18 -12 -6 -59 -18 -105 -25 -46 -7 -95 -19 -110 -27 -15 -7 -56 -16 -92 -20 -36 -3 -87 -15 -115 -25 -27 -11 -72 -23 -100 -28 -31 -5 -49 -13 -48 -21 2 -6 -2 -12 -7 -12 -6 0 -10 -5 -10 -11 0 -5 6 -7 13 -3 9 6 9 4 -1 -8 -8 -10 -9 -18 -3 -22 6 -4 8 -12 6 -19 -10 -28 -13 -67 -5 -67 12 0 7 -33 -8 -49 -8 -8 -9 -17 -3 -25 13 -16 19 -96 7 -96 -21 0 13 -22 46 -29 22 -5 50 -3 78 6 25 8 77 16 117 18 40 2 85 11 101 19 17 9 60 16 98 17 45 1 82 8 106 20 23 12 58 19 93 19 33 0 76 8 103 19 26 11 75 22 110 24 34 3 73 12 85 20 14 9 56 16 107 19 51 2 99 10 120 20 82 39 161 68 185 68 14 0 42 9 62 20 21 11 49 20 63 20 14 1 43 9 65 20 22 11 49 19 60 20 11 0 37 9 58 20 20 11 47 20 59 20 13 0 38 9 56 20 18 11 42 20 54 20 11 0 39 8 62 19 23 10 57 24 76 31 64 23 134 48 200 73 36 14 81 30 100 37 19 7 49 18 65 25 118 48 144 58 171 65 18 4 42 15 55 24 13 9 36 16 52 16 l28 0 -38 -32 c-21 -18 -40 -36 -43 -39 -3 -3 -48 -43 -100 -88 -96 -84 -216 -192 -294 -266 -43 -40 -131 -121 -406 -376 -150 -138 -174 -173 -128 -184 14 -4 44 1 69 10 24 9 62 21 84 26 21 6 53 16 70 23 16 8 68 28 114 46 46 17 96 39 110 48 31 20 268 209 293 234 10 10 80 68 155 130 76 61 143 117 148 124 6 6 35 29 65 51 30 22 91 69 136 104 91 72 79 63 311 236 95 70 192 140 215 155 24 15 68 46 98 68 30 22 88 63 129 90 40 28 85 60 100 71 14 11 51 37 82 57 92 61 143 95 170 117 14 11 35 26 45 33 10 7 51 34 89 62 39 27 85 59 103 72 138 96 218 171 174 163 -49 -10 -101 -12 -96 -4 3 5 -1 7 -8 5 -45 -14 -69 -16 -62 -5 4 8 3 9 -4 5 -19 -11 -116 -14 -129 -4 -7 6 -13 6 -13 2 0 -5 -21 -8 -47 -6 -27 1 -66 3 -88 5 -44 2 -124 -35 -224 -104 l-56 -39 -18 23 c-10 12 -25 36 -34 52 -25 48 -45 66 -65 59 -10 -3 -25 0 -33 6 -8 7 -15 9 -15 4 0 -12 -103 -11 -112 1 -5 6 -8 4 -8 -4 0 -11 -4 -10 -16 5 -8 10 -12 13 -8 5z" fill="#000000"/>
<path d="M6152 11929 c2 -10 -7 -14 -29 -15 -18 -1 -33 3 -33 8 0 4 -9 8 -21 8 -11 0 -17 -5 -14 -10 4 -6 10 -8 15 -5 4 3 10 -3 13 -14 2 -10 17 -21 36 -24 17 -4 55 -18 85 -32 29 -14 58 -25 65 -25 6 0 28 -9 48 -20 21 -11 48 -20 61 -20 12 0 39 -8 60 -19 20 -10 53 -22 72 -26 19 -4 44 -13 55 -20 11 -7 38 -16 60 -20 21 -4 56 -15 77 -26 20 -10 49 -19 63 -19 14 0 42 -7 63 -16 20 -9 62 -22 92 -29 135 -33 154 -51 170 -162 4 -33 13 -70 19 -81 6 -11 12 -46 13 -79 l3 -58 -280 -7 c-255 -6 -430 -22 -463 -42 -20 -12 -12 -50 16 -74 15 -13 70 -51 122 -85 162 -105 481 -391 627 -562 28 -33 79 -93 114 -134 35 -41 78 -90 94 -110 120 -147 232 -239 420 -348 29 -17 143 -73 195 -96 25 -11 61 -29 81 -39 20 -10 44 -18 53 -18 9 0 33 -9 53 -20 21 -11 46 -20 57 -20 11 0 27 -7 36 -15 9 -9 39 -22 66 -29 78 -23 176 -53 209 -65 77 -27 134 -43 184 -52 29 -5 80 -19 112 -29 32 -11 77 -20 99 -20 22 0 57 -8 78 -17 32 -15 84 -18 374 -21 l338 -4 -28 -22 c-15 -12 -47 -35 -72 -51 -25 -17 -49 -33 -55 -38 -79 -60 -376 -199 -480 -223 -16 -4 -48 -15 -70 -25 -22 -10 -51 -19 -65 -19 -14 0 -38 -7 -55 -16 -16 -9 -57 -18 -90 -22 -40 -3 -81 -16 -125 -39 -63 -33 -123 -57 -222 -89 -54 -17 -91 -57 -82 -88 18 -62 80 -78 182 -47 108 33 140 29 187 -20 72 -74 247 -209 272 -209 6 0 16 -6 22 -14 7 -8 24 -17 38 -21 15 -3 38 -15 51 -26 14 -10 32 -19 41 -19 9 0 34 -8 56 -19 93 -44 137 -61 158 -61 12 0 39 -9 60 -20 20 -11 54 -20 74 -20 21 0 57 -9 80 -19 23 -11 68 -23 100 -26 32 -4 70 -14 85 -21 15 -8 47 -14 73 -14 25 0 45 -3 45 -7 -1 -10 -118 -101 -180 -141 -25 -16 -74 -48 -110 -70 -36 -23 -71 -42 -78 -42 -8 0 -25 -9 -39 -20 -14 -11 -33 -20 -42 -20 -9 0 -29 -9 -46 -20 -16 -11 -38 -20 -48 -20 -10 0 -35 -9 -57 -20 -22 -11 -50 -20 -64 -20 -14 0 -47 -8 -73 -19 -26 -10 -81 -21 -121 -25 -40 -4 -92 -14 -114 -22 -57 -20 -338 -20 -376 0 -15 8 -44 17 -65 21 -20 4 -54 16 -74 26 -21 11 -47 19 -59 19 -12 0 -41 9 -65 20 -24 11 -59 20 -78 20 -19 0 -59 9 -90 19 -75 26 -331 45 -421 31 -36 -5 -92 -10 -125 -10 -40 0 -70 -6 -90 -18 -17 -10 -50 -21 -73 -25 -24 -3 -51 -12 -61 -21 -10 -9 -25 -16 -33 -16 -9 0 -45 -16 -80 -35 -34 -19 -76 -42 -93 -51 -118 -64 -370 -320 -418 -424 -4 -8 -21 -35 -37 -60 -16 -25 -34 -55 -39 -67 -6 -12 -25 -44 -44 -70 -44 -64 -127 -209 -127 -223 0 -7 -9 -23 -20 -37 -11 -14 -20 -32 -20 -40 0 -8 -9 -34 -20 -57 -11 -24 -22 -63 -26 -87 -4 -23 -13 -54 -21 -68 -16 -31 -17 -168 -2 -208 6 -15 15 -55 20 -88 5 -33 17 -77 26 -98 11 -26 13 -41 6 -48 -22 -22 -95 -29 -308 -29 -183 0 -224 3 -243 15 -12 9 -45 19 -74 22 -29 3 -69 14 -88 25 -19 10 -42 18 -50 18 -8 0 -35 10 -60 21 -25 12 -65 31 -90 43 -56 26 -201 107 -217 121 -6 5 -28 21 -48 35 -20 14 -70 57 -112 95 -79 74 -82 80 -68 162 6 33 3 51 -14 83 -11 22 -21 46 -21 53 0 7 -9 30 -20 52 -25 50 -29 226 -5 271 8 16 17 49 21 74 4 25 12 52 19 60 8 8 17 29 21 45 4 17 15 46 25 65 9 19 27 58 39 85 12 28 25 57 30 65 5 8 21 38 35 67 22 44 42 76 120 195 56 85 98 145 124 176 17 20 62 78 102 127 76 97 109 131 179 184 55 42 140 147 140 173 0 39 -29 85 -88 139 -58 55 -145 119 -160 119 -4 0 -24 9 -44 20 -21 11 -57 23 -80 26 -24 4 -66 12 -93 19 -46 12 -60 10 -174 -18 -138 -33 -162 -49 -233 -158 -63 -96 -184 -327 -203 -389 -4 -14 -11 -29 -15 -35 -14 -18 -70 -189 -70 -213 0 -12 -8 -37 -17 -55 -26 -48 -31 -359 -7 -437 25 -82 28 -152 10 -233 -8 -40 -20 -129 -25 -200 -5 -70 -13 -132 -17 -139 -4 -7 -11 -74 -14 -150 -4 -76 -10 -141 -13 -145 -17 -16 -337 298 -337 331 0 3 -15 28 -33 54 -32 46 -87 151 -87 167 0 4 -8 26 -19 49 -30 68 -52 138 -61 196 -5 30 -16 75 -25 99 -12 34 -15 92 -15 277 0 210 2 238 20 284 11 28 20 62 20 76 0 14 9 37 20 51 11 14 20 38 20 53 0 15 7 33 15 40 8 7 15 18 15 24 1 14 50 113 73 146 9 13 17 34 17 45 0 11 7 31 17 44 9 13 22 49 29 80 6 31 17 70 22 86 6 17 24 73 41 125 52 161 63 194 82 236 11 23 19 45 19 50 0 5 9 27 19 49 52 108 62 137 59 162 -10 89 -99 -10 -364 -407 -42 -63 -85 -127 -95 -142 -11 -15 -19 -31 -19 -36 0 -5 -9 -17 -19 -26 -11 -10 -22 -30 -26 -44 -4 -15 -12 -34 -20 -42 -7 -8 -34 -58 -60 -110 -26 -52 -56 -112 -66 -132 -11 -20 -19 -44 -19 -52 0 -9 -9 -30 -20 -48 -11 -18 -20 -45 -20 -59 0 -15 -9 -46 -19 -70 -31 -73 -46 -286 -31 -465 7 -82 18 -160 25 -174 7 -14 16 -46 19 -73 6 -37 4 -48 -8 -53 -8 -3 -20 -22 -27 -41 -6 -19 -17 -47 -25 -61 -18 -35 -18 -59 1 -112 19 -54 20 -197 1 -247 -8 -21 -17 -51 -21 -68 -9 -43 -42 -109 -93 -184 -67 -102 -78 -111 -131 -111 -29 0 -57 -7 -76 -20 -16 -11 -43 -20 -58 -20 -34 0 -181 -76 -257 -132 -125 -93 -277 -281 -348 -428 -54 -114 -72 -156 -72 -171 0 -8 -7 -25 -16 -37 -8 -12 -19 -46 -24 -74 -6 -29 -17 -78 -25 -108 -8 -30 -15 -76 -15 -102 0 -71 -3 -71 -115 1 -130 84 -259 213 -405 406 -17 22 -36 47 -43 55 -12 15 -47 68 -83 125 -38 61 -94 200 -94 235 0 56 -10 80 -41 95 -30 16 -77 19 -94 7 -33 -22 -67 -107 -75 -185 -5 -45 -16 -107 -25 -137 -10 -37 -15 -99 -15 -197 0 -95 -4 -143 -11 -143 -29 0 -232 136 -345 231 -119 99 -224 245 -224 309 0 11 -8 41 -19 67 -30 78 -45 312 -31 491 7 84 17 158 25 173 8 14 19 50 24 80 11 61 44 160 66 201 8 14 15 35 15 45 0 10 6 27 14 38 7 11 17 31 21 45 10 33 119 249 169 335 38 64 86 163 86 175 0 7 9 23 20 37 11 14 20 36 20 48 0 12 6 28 14 34 8 7 18 26 22 44 3 17 19 54 35 82 16 27 36 66 45 85 15 33 62 109 105 172 11 15 19 30 19 34 0 4 7 16 17 26 9 10 21 27 27 38 14 24 84 136 136 215 22 33 48 73 57 88 10 15 46 67 81 114 34 48 62 92 62 99 0 6 7 14 15 18 8 3 15 17 15 31 0 42 -36 31 -102 -32 -182 -175 -386 -392 -538 -573 -30 -36 -60 -69 -66 -75 -23 -21 -252 -312 -268 -340 -9 -17 -36 -57 -61 -90 -25 -33 -50 -69 -55 -80 -6 -11 -24 -40 -40 -65 -16 -25 -52 -92 -80 -150 -29 -58 -56 -112 -61 -120 -5 -8 -14 -26 -20 -40 -6 -14 -19 -41 -29 -61 -10 -19 -22 -53 -25 -75 -4 -21 -12 -45 -18 -52 -5 -7 -16 -36 -23 -65 -7 -28 -20 -70 -28 -92 -8 -22 -15 -64 -16 -93 0 -29 -7 -66 -15 -82 -8 -16 -18 -73 -21 -132 -5 -78 -12 -109 -26 -127 -10 -13 -18 -32 -18 -41 0 -10 -6 -23 -14 -29 -8 -7 -18 -26 -21 -42 -4 -16 -11 -31 -16 -34 -5 -3 -24 -38 -44 -78 l-35 -72 0 362 c0 276 3 377 14 425 8 35 17 92 21 128 10 90 59 168 182 287 53 50 66 69 70 101 7 52 -9 80 -52 88 -37 7 -64 -5 -107 -49 -13 -13 -90 -79 -172 -148 -192 -159 -323 -288 -308 -303 2 -3 -1 -13 -8 -22 -9 -10 -10 -18 -3 -22 6 -4 10 -23 9 -42 -1 -49 20 -49 90 -1 32 22 61 38 66 35 4 -3 8 -206 8 -452 0 -444 0 -448 25 -537 29 -105 54 -135 114 -135 20 0 46 -7 57 -15 26 -20 78 -19 96 3 16 18 58 132 58 157 0 18 43 125 50 125 6 0 22 -51 41 -125 14 -57 59 -167 75 -186 8 -8 14 -22 14 -29 0 -38 209 -290 240 -290 5 0 32 -19 62 -43 47 -38 177 -122 218 -141 8 -4 33 -18 55 -31 22 -13 69 -38 105 -55 36 -17 81 -39 100 -49 19 -10 47 -21 61 -24 18 -5 39 -26 63 -61 20 -30 46 -58 57 -61 18 -6 12 -10 -32 -25 -30 -10 -74 -21 -99 -25 -25 -4 -64 -16 -87 -26 -23 -11 -50 -19 -60 -19 -10 0 -35 -9 -56 -20 -20 -11 -43 -20 -50 -20 -7 0 -29 -9 -50 -20 -20 -11 -43 -20 -51 -20 -7 0 -24 -8 -37 -18 -13 -11 -36 -22 -50 -25 -14 -4 -36 -16 -49 -27 -13 -11 -28 -20 -33 -20 -22 0 -89 -55 -103 -84 -8 -17 -21 -42 -29 -56 -19 -32 -19 -91 -1 -134 17 -40 78 -103 120 -123 55 -26 100 -51 167 -95 62 -40 67 -46 74 -88 16 -103 142 -274 268 -363 l59 -41 -22 -18 c-12 -10 -30 -18 -39 -18 -16 0 -198 -89 -228 -113 -47 -35 -133 -129 -163 -177 -77 -121 -118 -202 -126 -249 -4 -20 -10 -41 -15 -47 -5 -6 -14 -35 -20 -65 -6 -30 -20 -80 -30 -111 -10 -32 -19 -70 -19 -86 0 -16 -7 -42 -15 -58 -8 -17 -18 -64 -21 -105 -4 -40 -14 -92 -22 -114 -8 -22 -18 -104 -23 -185 -10 -193 -34 -328 -62 -359 -12 -13 -49 -46 -82 -73 -190 -158 -638 -588 -655 -629 -13 -29 -14 -46 -7 -111 2 -26 0 -45 -4 -42 -5 3 -9 0 -9 -5 0 -6 6 -11 13 -11 8 0 7 -4 -3 -10 -13 -9 -13 -11 0 -20 9 -6 10 -10 3 -10 -7 0 -10 -10 -6 -27 3 -16 5 -47 5 -70 1 -24 5 -43 11 -43 20 0 144 65 184 97 23 18 44 33 48 33 8 0 60 38 152 112 39 32 74 58 78 58 8 0 197 169 207 186 5 7 70 64 145 127 212 177 247 217 313 355 28 60 30 74 36 215 3 84 12 177 20 207 7 30 16 93 20 140 3 47 13 100 21 119 9 19 18 64 21 100 2 36 13 83 23 103 11 21 19 52 19 70 0 19 9 51 20 73 11 22 20 50 20 63 0 13 6 36 14 50 8 15 24 49 36 75 25 54 79 111 125 133 16 7 37 18 45 23 29 17 216 46 300 46 94 -1 243 -28 306 -56 22 -11 46 -19 53 -19 7 0 24 -9 38 -20 14 -11 31 -20 38 -20 15 0 97 -60 154 -114 46 -44 91 -107 91 -129 0 -7 8 -29 19 -49 10 -20 21 -59 25 -87 4 -28 13 -69 21 -92 10 -29 15 -83 15 -176 0 -191 -12 -223 -115 -298 -228 -167 -375 -341 -375 -443 0 -53 22 -107 49 -122 24 -12 57 5 166 85 101 75 203 143 225 150 11 3 20 10 20 15 0 9 37 32 145 92 148 82 271 126 385 137 42 5 86 14 99 20 53 29 238 -9 306 -63 146 -114 308 -279 342 -351 8 -16 25 -49 39 -73 32 -58 84 -189 84 -213 0 -11 7 -34 16 -51 9 -18 18 -68 21 -123 l6 -92 -105 -5 c-63 -4 -116 -12 -134 -21 -16 -8 -53 -20 -82 -26 -30 -6 -63 -18 -75 -26 -12 -8 -32 -15 -45 -15 -12 0 -40 -9 -62 -20 -22 -11 -49 -20 -60 -20 -50 0 -190 -100 -190 -136 0 -8 -24 -46 -52 -84 -99 -130 -148 -251 -148 -367 0 -91 11 -113 69 -132 51 -17 67 -14 106 20 33 30 95 112 95 127 0 4 23 39 50 77 28 39 58 81 68 94 26 37 64 71 97 86 17 8 37 19 45 24 53 32 97 42 138 31 25 -6 103 -10 190 -8 81 1 174 -1 207 -6 61 -8 135 -46 135 -69 1 -6 9 -30 20 -52 11 -22 20 -51 20 -65 0 -14 9 -43 20 -65 11 -22 19 -57 20 -78 0 -22 8 -51 19 -65 10 -15 22 -49 25 -76 4 -27 14 -63 21 -80 16 -37 39 -242 39 -341 0 -101 -20 -241 -43 -309 -12 -33 -21 -61 -21 -63 0 -1 288 -3 640 -3 l640 0 24 53 c13 30 43 70 70 94 38 34 46 48 46 76 0 56 -27 71 -130 75 -48 2 -125 0 -171 -6 -110 -12 -249 -5 -256 14 -5 13 41 110 107 229 16 28 35 64 44 80 17 34 25 47 76 124 19 29 40 61 45 69 34 56 236 290 307 357 119 113 200 165 468 302 141 72 168 103 139 167 -18 38 -58 47 -180 40 -73 -5 -113 -3 -122 4 -7 6 -40 15 -74 21 -34 5 -75 17 -92 25 -16 9 -35 16 -42 16 -6 0 -33 10 -58 22 -223 107 -407 255 -481 387 -19 34 -41 68 -47 76 -33 35 1 33 71 -5 77 -41 83 -44 156 -79 36 -18 72 -35 80 -40 15 -8 82 -39 130 -60 14 -6 32 -15 40 -20 29 -17 125 -61 135 -61 6 -1 28 -9 50 -20 22 -11 46 -19 53 -20 7 0 30 -9 52 -20 67 -34 160 -23 160 20 0 31 -33 56 -81 64 -24 4 -53 13 -64 20 -11 7 -33 16 -50 20 -38 9 -232 125 -310 185 -32 25 -68 53 -79 61 -10 8 -64 56 -118 105 -55 50 -107 94 -116 99 -25 13 -122 96 -122 104 0 17 83 41 160 47 47 4 99 13 115 20 17 7 71 16 120 20 48 4 105 13 125 20 21 7 64 16 96 20 33 4 76 16 96 26 21 11 45 19 55 19 10 0 29 9 43 20 14 11 29 20 33 20 5 0 20 9 34 20 22 17 41 20 140 20 88 0 126 5 170 20 32 11 69 20 83 20 14 0 38 7 54 15 43 23 246 103 281 111 17 4 46 15 65 26 19 10 43 18 52 18 10 0 32 9 50 20 18 11 39 20 47 20 8 0 35 9 60 21 25 12 64 29 86 39 22 10 110 52 195 93 85 41 229 107 320 148 91 40 177 81 191 90 14 10 37 21 52 24 14 4 31 13 38 21 6 8 18 14 26 14 8 0 31 9 51 20 55 29 208 100 216 100 6 0 63 24 151 65 17 7 63 28 104 45 41 18 124 58 185 90 61 32 125 65 141 74 17 8 75 37 130 63 55 26 126 64 158 85 32 21 62 38 67 38 4 0 33 19 64 43 30 23 77 58 103 77 60 44 253 238 292 293 17 23 55 79 86 124 31 46 60 85 65 88 4 3 25 31 46 62 88 132 119 233 83 268 -22 22 -39 12 -79 -47 -77 -115 -216 -255 -345 -347 -50 -36 -92 -68 -95 -71 -5 -5 -52 -36 -105 -67 -40 -24 -229 -113 -239 -113 -11 0 -164 -89 -253 -147 -74 -48 -211 -124 -328 -183 -22 -11 -65 -33 -95 -49 -30 -16 -82 -41 -115 -56 -33 -15 -78 -35 -100 -46 -22 -10 -67 -30 -100 -45 -33 -14 -114 -53 -181 -85 -66 -33 -125 -59 -131 -59 -6 0 -16 -7 -23 -15 -7 -8 -22 -15 -34 -15 -12 0 -38 -9 -59 -20 -20 -11 -43 -20 -50 -20 -7 0 -28 -8 -47 -19 -19 -10 -53 -21 -75 -25 -22 -5 -51 -14 -65 -21 -14 -7 -59 -26 -100 -41 -41 -16 -121 -54 -177 -86 -57 -32 -109 -58 -115 -58 -7 0 -28 -9 -46 -20 -18 -11 -37 -20 -43 -20 -6 0 -25 -7 -42 -14 -53 -25 -149 -57 -207 -70 -30 -7 -68 -18 -83 -24 -16 -7 -35 -12 -43 -12 -7 0 -42 -10 -76 -22 -60 -21 -77 -22 -393 -22 -289 0 -336 2 -380 18 -27 9 -101 21 -165 25 -64 5 -126 14 -138 20 -12 7 -68 14 -125 17 -56 3 -124 12 -152 19 -27 8 -104 19 -171 24 -66 6 -138 17 -160 25 -22 7 -82 17 -134 20 -52 4 -122 14 -154 22 -33 8 -100 17 -150 20 -50 3 -115 12 -143 20 -29 8 -106 19 -170 23 -65 5 -131 14 -147 21 -16 6 -85 15 -153 20 -68 5 -132 14 -143 20 -10 5 -62 15 -116 20 -53 6 -102 15 -109 20 -6 5 -35 15 -64 21 -29 6 -65 17 -79 25 -15 8 -33 14 -40 14 -12 0 -45 14 -172 73 -78 37 -157 95 -237 175 -43 43 -101 99 -129 124 -70 63 -127 134 -153 189 -30 64 -30 239 -1 324 11 32 20 68 20 80 0 13 7 28 15 35 8 7 17 28 21 49 4 20 15 50 25 67 11 17 19 40 19 50 1 11 9 37 20 59 11 22 19 46 20 53 0 7 9 30 19 50 39 75 72 163 69 185 -2 18 -9 22 -36 20 -46 -2 -98 -41 -157 -119 -27 -36 -66 -87 -86 -112 -48 -64 -116 -182 -125 -218 -4 -16 -15 -45 -25 -64 -9 -20 -19 -71 -23 -120 -3 -47 -13 -103 -21 -125 -20 -57 -21 -309 0 -349 20 -37 19 -48 -2 -36 -45 24 -164 70 -183 70 -11 0 -33 6 -48 14 -15 7 -73 16 -132 19 -93 4 -111 8 -160 35 -30 17 -66 37 -80 43 -22 11 -47 31 -159 126 l-26 23 35 -7 c19 -3 51 -14 70 -25 19 -10 43 -18 52 -18 10 0 35 -9 55 -20 21 -11 48 -20 61 -20 13 0 36 -7 52 -16 34 -21 60 -12 60 19 0 17 -30 50 -119 128 -66 57 -152 129 -191 159 -39 30 -84 65 -98 79 -15 14 -56 47 -91 73 -35 26 -83 66 -108 89 l-45 41 23 24 c12 13 30 24 39 24 10 0 29 9 43 20 14 11 32 20 40 20 8 0 26 9 40 20 14 11 34 20 45 20 10 0 31 9 45 20 14 11 38 20 54 20 15 0 45 9 66 20 20 11 51 20 67 20 17 0 56 9 87 20 32 11 73 20 93 20 20 0 72 9 116 19 46 12 135 22 215 25 81 3 153 12 179 21 23 8 70 15 104 15 35 0 73 7 90 15 19 10 41 13 63 9 37 -7 54 1 135 71 75 64 78 67 78 57 0 -4 -7 -17 -15 -28 -31 -41 -14 -74 37 -74 26 0 138 113 138 139 0 20 -24 51 -40 51 -5 0 -29 -16 -54 -35 -53 -40 -60 -42 -51 -16 7 24 -19 51 -48 51 -12 0 -37 -9 -55 -20 -36 -22 -52 -25 -52 -10 0 20 251 318 320 380 121 108 263 200 309 200 9 0 42 9 74 20 31 11 75 20 97 20 22 0 66 9 97 20 79 28 138 25 190 -8 23 -15 96 -69 163 -120 127 -97 182 -130 268 -157 51 -17 53 -16 95 5 67 34 104 76 117 132 14 57 7 106 -20 141 -11 14 -20 29 -20 34 0 4 -49 56 -108 114 -100 99 -217 181 -289 203 -21 7 -66 31 -151 83 -21 12 -50 29 -67 38 -16 8 -37 20 -45 25 -8 5 -43 21 -77 36 -35 15 -63 29 -63 31 0 3 9 18 21 34 42 59 117 216 123 260 4 24 14 61 23 82 l16 37 28 -32 c16 -18 28 -37 29 -42 1 -29 187 -230 326 -353 75 -66 302 -218 350 -233 72 -24 151 7 175 68 5 12 13 22 18 22 6 0 41 -27 78 -61 75 -66 170 -134 263 -189 19 -11 42 -25 50 -30 8 -6 26 -14 40 -20 14 -5 32 -14 40 -19 39 -25 158 -72 240 -96 25 -7 62 -20 82 -29 21 -9 56 -16 80 -16 23 0 70 -7 105 -16 118 -29 367 -7 597 54 86 23 117 27 143 20 90 -25 164 83 118 172 -13 26 -45 43 -98 52 -22 3 -47 62 -54 124 -5 39 -3 41 34 58 51 23 93 63 199 191 49 59 114 131 144 159 154 144 191 177 260 232 79 63 211 154 224 154 4 0 20 9 36 20 17 11 43 29 60 40 16 11 38 20 48 20 11 0 31 9 45 20 14 11 37 20 52 20 15 0 42 8 59 19 20 12 59 21 111 24 44 4 95 11 113 18 18 6 54 9 80 6 155 -19 252 -37 280 -51 17 -9 41 -16 54 -16 13 0 37 -9 53 -20 17 -11 37 -20 46 -20 20 0 188 -85 264 -134 74 -48 126 -89 235 -187 129 -116 214 -151 310 -126 33 8 93 88 113 151 16 46 16 51 -3 94 -25 56 -80 140 -110 167 -12 11 -33 43 -46 71 -27 58 -119 150 -210 210 l-57 38 50 17 c27 9 87 20 134 24 46 4 109 15 139 25 119 39 162 44 221 25 30 -10 63 -24 74 -31 11 -8 30 -14 43 -14 12 0 39 -8 60 -19 20 -10 62 -22 92 -26 30 -3 71 -14 90 -22 51 -23 287 -24 350 -1 25 9 72 19 105 23 32 3 72 12 87 19 15 8 47 17 70 21 45 6 99 26 206 77 165 77 315 296 332 483 3 39 12 80 19 93 7 13 16 83 21 155 4 73 14 146 20 162 9 20 13 104 14 260 1 189 -2 240 -16 285 -10 31 -19 104 -22 170 -2 63 -9 128 -15 143 -6 15 -16 69 -21 120 -6 50 -17 101 -24 112 -7 11 -15 45 -19 76 -3 31 -15 77 -26 102 -12 25 -21 54 -21 64 -1 10 -9 36 -20 58 -11 22 -19 48 -20 57 0 10 -9 39 -21 65 -12 27 -29 66 -38 88 -26 58 -155 317 -205 410 -24 44 -61 114 -83 155 -23 41 -52 95 -67 120 -14 25 -33 59 -41 75 -35 68 -126 230 -158 280 -85 135 -151 237 -174 268 -15 22 -33 46 -38 55 -37 60 -68 102 -99 134 -19 21 -46 55 -60 76 -13 22 -62 77 -108 124 -80 81 -97 91 -153 89 -108 -3 -147 -2 -152 2 -3 4 -13 2 -22 -3 -20 -10 -70 -8 -89 3 -16 10 -15 7 4 -39 16 -39 26 -54 117 -187 26 -38 47 -72 47 -76 0 -4 9 -16 20 -26 11 -10 20 -22 20 -28 0 -5 18 -31 40 -57 22 -26 40 -52 40 -57 0 -6 15 -30 33 -54 19 -24 43 -59 53 -77 41 -72 51 -88 76 -128 15 -23 34 -57 42 -75 9 -19 36 -70 61 -114 24 -44 54 -98 65 -120 11 -22 31 -58 44 -80 14 -22 32 -53 40 -70 9 -16 26 -48 39 -70 13 -22 47 -85 77 -140 29 -55 66 -122 81 -150 35 -65 199 -396 227 -458 12 -26 22 -58 22 -70 0 -12 9 -37 20 -55 11 -18 20 -44 20 -58 0 -13 9 -42 20 -64 11 -22 20 -52 20 -67 0 -16 7 -53 15 -83 9 -30 20 -95 26 -145 5 -49 17 -119 25 -155 31 -135 27 -777 -5 -862 -5 -14 -14 -66 -20 -114 -12 -107 -37 -170 -88 -221 -42 -42 -154 -93 -206 -93 -17 0 -51 -9 -75 -20 -31 -14 -77 -21 -172 -26 -72 -4 -130 -3 -130 1 0 10 15 22 145 109 193 131 258 202 284 309 13 52 3 110 -26 154 -22 34 -98 82 -146 93 -23 5 -59 16 -79 25 -22 9 -67 15 -111 15 -43 0 -93 7 -118 16 -24 9 -77 20 -118 25 -40 4 -92 15 -115 23 -22 8 -78 17 -123 20 -45 4 -97 13 -115 21 -19 7 -59 17 -89 21 -30 4 -63 13 -74 19 -11 7 -36 16 -56 19 -19 3 -53 15 -74 26 -22 11 -45 20 -52 20 -7 0 -26 8 -43 19 l-31 18 48 17 c26 10 66 22 88 28 22 6 61 19 87 29 26 11 54 19 62 19 9 0 37 10 63 21 27 12 66 29 88 39 69 31 169 80 205 102 79 49 156 98 175 112 169 126 390 347 431 431 l26 52 -23 53 c-16 36 -37 64 -72 91 -47 37 -52 39 -123 39 -47 0 -88 -6 -112 -16 -20 -9 -75 -22 -122 -29 -47 -7 -103 -18 -125 -24 -50 -13 -414 -14 -475 0 -25 5 -78 14 -119 19 -40 5 -75 11 -78 13 -2 2 1 16 7 31 5 15 10 42 10 60 0 18 7 48 17 66 11 22 19 77 25 164 4 72 12 160 18 196 5 36 15 175 20 310 6 136 17 276 25 315 20 92 29 505 15 691 -7 105 -16 157 -33 204 -13 35 -27 58 -30 53 -7 -11 -123 -10 -134 0 -3 4 -13 1 -21 -6 -13 -10 -14 -9 -7 2 6 11 5 12 -6 5 -18 -11 -59 -13 -59 -3 0 17 -49 -14 -54 -35 -4 -11 -11 -156 -16 -321 -6 -165 -15 -318 -21 -340 -6 -22 -15 -143 -20 -270 -5 -126 -14 -261 -19 -300 -5 -38 -14 -151 -19 -250 -5 -99 -16 -213 -25 -253 -8 -40 -18 -110 -22 -157 l-7 -85 -33 0 c-18 0 -55 8 -81 19 -26 10 -68 21 -92 25 -24 4 -55 13 -70 20 -14 7 -48 17 -75 21 -27 4 -59 13 -70 20 -12 7 -37 16 -57 19 -19 3 -53 15 -74 26 -22 11 -48 20 -58 20 -10 0 -31 6 -45 14 -15 8 -54 26 -87 41 -71 30 -223 108 -270 138 -10 6 -51 32 -90 56 -128 80 -189 120 -242 157 -48 34 -53 41 -53 76 0 22 6 51 14 66 8 15 18 46 22 67 4 22 15 56 25 75 11 19 19 43 19 52 0 16 9 39 61 154 11 23 19 50 19 60 0 10 9 33 20 49 11 17 20 38 20 47 0 10 9 32 20 50 11 18 20 39 20 46 0 7 12 39 26 70 29 63 53 117 85 190 11 26 24 54 29 62 20 33 100 198 100 206 0 4 6 15 14 23 8 9 22 36 31 61 30 83 30 81 1 76 -15 -3 -24 -1 -21 5 4 5 -1 9 -9 9 -9 0 -16 -3 -16 -8 0 -10 -121 -9 -137 1 -7 5 -18 5 -24 1 -16 -9 -130 -11 -136 -1 -2 4 -9 7 -14 7 -6 0 -8 -4 -4 -9 3 -6 -10 -9 -30 -8 -19 1 -35 5 -35 9 0 4 -12 2 -26 -4 -19 -9 -30 -9 -44 0 -13 8 -21 8 -25 1 -5 -7 -11 -6 -21 2 -11 9 -14 8 -14 -2 0 -12 -2 -12 -9 0 -6 10 -10 10 -16 1 -5 -8 -13 -6 -28 7 -11 10 -17 12 -13 6 5 -10 -6 -12 -46 -10 -29 2 -63 0 -76 -5 -15 -5 -21 -4 -17 2 3 6 2 10 -4 10 -5 0 -12 -6 -14 -12 -4 -10 -6 -10 -6 0 -1 6 -6 12 -12 12 -5 0 -7 -5 -3 -11 4 -8 1 -8 -13 -1 -11 6 -25 7 -33 2 -8 -5 -19 -6 -25 -1 -13 9 -76 8 -91 -2 -7 -4 -17 0 -24 8 -10 13 -14 13 -27 -1 -11 -10 -19 -12 -27 -4 -7 5 -15 7 -18 5 -3 -3 -22 -8 -43 -10 -28 -4 -41 -1 -51 12 -13 17 -14 17 -8 1 7 -21 4 -21 -30 -8 -17 6 -26 6 -26 0 0 -6 -5 -10 -11 -10 -5 0 -7 6 -3 13 5 8 2 8 -9 -2 -14 -11 -17 -11 -17 0 0 9 -3 10 -8 4 -6 -9 -61 -12 -87 -5 -23 7 -175 4 -175 -2 0 -5 -5 -8 -11 -8 -5 0 -7 5 -3 12 5 7 3 8 -5 3 -18 -10 -82 -12 -88 -2 -3 5 -9 4 -13 -3 -6 -9 -14 -8 -34 5 -21 14 -26 15 -24 4z m-742 -3333 c48 -5 135 -40 158 -62 7 -8 18 -14 23 -14 24 0 5 -32 -30 -50 -64 -32 -110 -66 -159 -117 -61 -64 -292 -349 -292 -361 0 -5 -9 -17 -20 -27 -11 -10 -20 -22 -20 -26 0 -7 -11 -25 -60 -99 -16 -23 -45 -77 -84 -156 -59 -119 -66 -117 -66 25 0 75 5 140 14 169 8 26 18 70 24 97 11 54 35 125 64 191 10 22 18 46 18 52 0 6 9 26 20 44 11 18 20 40 20 49 0 9 6 22 14 28 8 7 17 22 20 34 4 19 23 55 82 158 20 35 65 61 117 68 51 7 64 7 157 -3z m-3560 -2722 c80 -117 202 -266 301 -366 l96 -98 -76 0 c-42 0 -112 -7 -156 -15 -44 -8 -109 -14 -144 -15 -63 0 -64 0 -46 20 11 13 31 20 52 20 23 0 42 8 58 24 51 51 42 113 -23 155 -118 77 -107 63 -120 154 -16 110 -16 187 1 187 6 0 32 -30 57 -66z m1260 -2514 c10 0 23 -7 30 -15 7 -8 18 -15 24 -15 6 0 38 -14 71 -30 33 -16 67 -30 75 -30 9 0 20 -4 26 -10 5 -5 36 -15 67 -20 31 -6 76 -20 100 -30 23 -11 56 -20 72 -20 17 0 52 -7 78 -15 26 -8 89 -17 140 -21 51 -3 115 -13 144 -21 28 -7 102 -18 165 -23 62 -5 142 -16 178 -24 36 -9 94 -16 130 -16 36 0 99 -9 140 -20 41 -11 94 -20 118 -20 41 0 42 -1 30 -19 -18 -26 -104 -87 -148 -107 -19 -8 -44 -19 -55 -24 -38 -17 -140 -51 -182 -60 -24 -5 -55 -16 -70 -23 -16 -8 -50 -18 -76 -21 -26 -4 -64 -14 -84 -22 -46 -20 -68 -13 -118 32 -153 139 -269 203 -430 236 -74 15 -324 5 -361 -15 -33 -18 -124 -40 -132 -33 -3 3 1 36 8 73 21 116 22 146 6 225 -9 43 -16 89 -16 103 l0 26 26 -20 c15 -12 35 -21 44 -21z m1564 -718 c12 -10 46 -29 76 -42 52 -22 59 -22 132 -10 43 7 88 10 101 6 13 -3 56 -36 96 -73 l73 -68 2 -131 c3 -128 4 -131 40 -197 20 -37 36 -72 36 -77 0 -13 -76 -13 -120 0 -19 6 -66 15 -105 21 -38 6 -75 15 -80 19 -13 11 -139 40 -171 40 -44 0 -83 -28 -109 -80 -31 -62 -31 -68 2 -133 38 -74 58 -100 151 -205 45 -51 82 -97 82 -102 0 -13 -13 -23 -123 -91 l-97 -60 -62 55 c-34 30 -91 68 -125 83 -58 26 -63 30 -58 53 28 120 28 213 -1 350 -8 36 -14 84 -14 107 0 44 -51 208 -78 252 -19 32 -76 118 -98 148 -13 19 -14 24 -3 27 8 2 34 11 59 19 25 9 63 19 85 22 49 8 156 41 210 66 52 23 74 23 99 1z m694 -789 c24 -8 63 -32 86 -52 66 -55 77 -64 130 -99 27 -17 55 -32 61 -32 7 0 18 -6 24 -14 7 -8 25 -18 41 -21 15 -3 45 -15 66 -26 21 -10 43 -19 50 -19 6 0 36 -11 65 -24 46 -20 51 -25 34 -32 -72 -28 -314 -227 -402 -330 -180 -208 -235 -273 -255 -302 -114 -161 -155 -225 -193 -302 -25 -49 -45 -95 -45 -102 0 -7 -9 -26 -20 -43 -11 -16 -20 -37 -20 -45 0 -8 -9 -26 -20 -40 -11 -14 -20 -33 -20 -42 0 -10 -4 -18 -10 -18 -6 0 -10 61 -10 163 -1 119 -5 172 -16 202 -8 22 -19 73 -24 114 -5 40 -14 79 -20 86 -5 7 -15 39 -21 71 -6 33 -17 66 -24 74 -7 8 -16 45 -20 82 -3 37 -13 72 -20 78 -8 6 -17 36 -21 66 -7 61 1 72 80 111 128 64 149 73 165 73 35 0 110 58 131 101 37 78 32 90 -90 213 -60 60 -110 116 -110 123 0 19 369 7 428 -14z" fill="#000000"/>
<path d="M10640 11932 c0 -7 -4 -11 -9 -7 -5 3 -12 1 -16 -5 -4 -7 -13 -7 -26 1 -15 8 -24 7 -35 -2 -9 -8 -18 -9 -22 -3 -11 15 -44 17 -53 3 -5 -9 -12 -10 -21 -3 -48 36 -62 -27 -23 -100 103 -193 141 -265 156 -294 10 -18 22 -38 27 -45 6 -7 13 -24 17 -39 4 -15 13 -32 20 -38 8 -6 17 -24 20 -40 3 -15 15 -36 26 -46 10 -9 19 -24 20 -33 0 -9 16 -43 34 -76 19 -33 40 -74 48 -91 8 -17 20 -35 26 -38 6 -4 11 -15 11 -25 0 -10 9 -30 20 -44 11 -14 20 -32 20 -40 0 -8 9 -26 20 -40 11 -14 20 -33 20 -42 0 -10 8 -32 19 -49 10 -17 22 -49 26 -71 4 -22 13 -51 20 -65 21 -39 55 -121 55 -134 0 -7 9 -29 19 -50 11 -21 23 -52 27 -69 3 -18 15 -51 25 -74 11 -23 19 -47 19 -53 0 -6 8 -28 19 -48 10 -20 28 -58 39 -85 12 -26 30 -66 40 -90 11 -23 34 -89 52 -147 18 -58 37 -109 41 -114 5 -6 9 -26 9 -46 0 -20 9 -72 20 -116 12 -46 23 -131 27 -204 3 -69 12 -140 19 -158 10 -24 15 -133 20 -420 6 -345 4 -395 -11 -462 -9 -41 -21 -104 -26 -140 -6 -36 -16 -79 -24 -95 -7 -17 -17 -55 -21 -85 -4 -30 -12 -66 -20 -80 -7 -14 -15 -42 -19 -62 -7 -36 -20 -50 -87 -88 -15 -8 -55 -32 -90 -53 -35 -21 -72 -43 -83 -50 -46 -27 -184 -119 -235 -157 -30 -22 -98 -69 -150 -105 -52 -36 -107 -76 -121 -89 -14 -13 -36 -29 -49 -36 -13 -7 -29 -17 -34 -22 -6 -5 -63 -48 -126 -95 -154 -115 -215 -167 -261 -226 -68 -86 -47 -105 62 -54 41 19 91 40 111 47 21 6 40 15 43 20 3 4 20 11 39 14 19 4 39 13 46 21 7 8 17 15 23 15 17 0 176 76 272 130 28 16 64 36 80 44 121 63 264 156 320 205 17 15 41 35 55 44 14 9 48 32 75 51 76 51 174 106 190 106 8 0 37 9 65 20 82 32 196 25 222 -14 4 -6 8 -36 8 -66 0 -30 7 -77 15 -104 12 -38 15 -127 16 -440 2 -346 0 -395 -15 -423 -9 -18 -16 -40 -16 -49 0 -85 -260 -488 -431 -670 -26 -27 -69 -76 -97 -109 -27 -33 -86 -93 -131 -133 -59 -54 -81 -80 -81 -98 0 -27 4 -28 66 -13 67 17 257 117 284 149 7 8 76 50 83 50 7 0 -64 -137 -108 -208 -57 -90 -201 -270 -312 -390 -93 -101 -124 -140 -152 -194 -11 -22 -12 -32 -1 -58 21 -50 80 -61 135 -24 62 43 164 -9 375 -192 137 -119 210 -197 204 -220 -5 -17 -70 -55 -164 -94 -14 -5 -32 -14 -40 -18 -14 -8 -46 -23 -145 -67 -66 -29 -177 -63 -230 -70 -52 -7 -102 -20 -240 -61 -44 -13 -100 -24 -125 -24 -25 0 -70 -7 -100 -16 -30 -8 -100 -19 -156 -24 -56 -4 -122 -15 -148 -24 -26 -9 -60 -16 -76 -16 -31 0 -179 -43 -220 -64 -14 -7 -38 -16 -55 -20 -47 -11 -75 -34 -75 -61 0 -18 7 -27 28 -32 15 -5 299 -8 632 -8 551 0 609 2 650 18 25 9 70 20 100 23 30 4 67 13 82 20 34 17 102 18 131 2 12 -7 49 -18 82 -24 33 -7 85 -19 115 -28 30 -9 69 -16 88 -16 18 0 43 -5 55 -12 12 -7 49 -17 82 -23 77 -14 79 -27 26 -137 -22 -46 -63 -137 -91 -203 -53 -124 -61 -140 -98 -212 -12 -23 -22 -47 -22 -54 0 -6 -9 -30 -19 -53 -21 -45 -51 -166 -51 -207 0 -16 12 -40 30 -59 27 -28 35 -32 66 -27 39 7 74 32 74 53 0 20 41 44 77 44 18 0 52 4 75 10 24 5 69 12 101 16 l57 5 0 90 0 89 -78 0 c-43 0 -81 3 -85 6 -6 7 13 45 58 119 14 22 39 67 56 100 17 33 35 64 40 69 5 6 9 146 9 318 l0 308 -54 0 c-29 0 -66 4 -82 9 -16 5 -50 12 -76 16 -27 3 -48 10 -48 14 0 4 17 15 38 24 64 28 158 94 191 134 29 35 31 43 31 117 0 77 -1 80 -41 132 -39 50 -175 173 -249 225 -19 13 -55 40 -80 59 -56 43 -108 80 -114 80 -2 0 -33 18 -67 39 -61 38 -218 119 -267 137 l-23 9 33 42 c18 23 65 79 104 125 60 70 160 211 201 283 6 11 37 72 68 135 31 63 61 123 66 133 29 55 59 157 65 221 7 77 5 73 105 222 62 94 90 140 118 199 13 28 32 66 42 86 35 70 39 149 39 835 l0 671 -22 20 c-66 59 -100 73 -176 73 l-73 0 7 38 c3 20 12 47 20 59 8 12 18 51 23 87 5 35 15 75 23 87 18 33 19 458 0 510 -8 22 -16 130 -21 281 -5 135 -11 250 -14 254 -3 5 -12 68 -21 139 -9 72 -23 150 -31 175 -7 25 -19 71 -25 102 -6 32 -16 60 -21 63 -5 4 -9 17 -9 30 0 25 -38 141 -69 210 -10 22 -27 60 -39 85 -11 25 -25 56 -31 70 -6 14 -15 32 -20 40 -12 21 -41 107 -53 155 -5 22 -16 50 -24 62 -8 12 -14 31 -14 41 0 11 -9 31 -20 45 -11 14 -20 36 -20 49 0 13 -9 41 -19 62 -11 21 -23 52 -27 69 -3 18 -12 43 -19 57 -7 14 -24 50 -38 80 -14 30 -40 86 -58 123 -19 38 -40 81 -47 95 -7 15 -17 34 -22 42 -5 8 -36 69 -70 135 -33 66 -71 138 -84 160 -12 22 -36 66 -53 97 -17 32 -41 70 -52 84 -12 15 -21 31 -21 36 0 12 -35 59 -74 100 -29 30 -44 32 -90 13 -14 -6 -17 -5 -12 3 5 8 2 10 -9 5 -10 -3 -21 0 -26 8 -7 11 -9 11 -9 1z" fill="#000000"/>
<path d="M11770 11401 c-36 -22 -72 -43 -80 -47 -30 -12 -56 -25 -95 -49 -22 -13 -53 -31 -70 -40 -73 -39 -85 -47 -114 -80 -48 -55 -43 -123 11 -151 39 -20 137 -10 172 17 13 10 27 19 31 19 9 0 188 102 195 111 3 3 16 10 30 14 14 4 33 14 43 23 9 8 27 20 40 26 28 14 57 71 57 112 0 53 -28 77 -96 81 -54 3 -64 1 -124 -36z" fill="#000000"/>
<path d="M11940 10950 c-14 -4 -47 -8 -73 -9 -26 -1 -67 -10 -89 -21 -23 -11 -51 -20 -63 -20 -26 0 -41 -12 -87 -71 -53 -67 -57 -92 -20 -129 32 -32 76 -39 113 -19 11 6 58 14 105 19 57 6 98 16 127 32 l42 23 3 103 c3 111 3 112 -58 92z" fill="#000000"/>
<path d="M11845 10530 c-43 -6 -64 -14 -77 -30 -35 -43 -19 -100 35 -125 18 -9 43 -22 57 -29 14 -8 41 -19 60 -24 19 -6 45 -13 58 -17 22 -6 22 -6 22 108 0 140 4 137 -155 117z" fill="#000000"/>
<path d="M84 9388 c1 -7 6 -19 10 -27 6 -10 5 -12 -2 -7 -12 7 -17 -6 -6 -17 11 -10 10 -107 -1 -107 -5 0 6 -14 25 -30 37 -33 164 -100 188 -100 8 0 29 -9 46 -19 17 -11 53 -22 79 -26 43 -7 100 -37 87 -47 -3 -2 -39 -26 -80 -53 -41 -27 -82 -55 -90 -62 -175 -147 -241 -220 -246 -266 -7 -74 -7 -104 0 -115 4 -7 0 -19 -8 -28 -18 -17 -21 -28 -6 -19 5 3 10 2 10 -4 0 -5 -6 -12 -12 -14 -10 -4 -10 -6 0 -6 6 -1 12 -8 12 -16 0 -25 14 -18 95 53 184 159 357 292 382 292 5 0 67 57 139 128 129 127 237 216 284 234 14 5 42 21 63 35 76 53 30 104 -63 69 -25 -10 -63 -22 -85 -27 -22 -6 -50 -17 -62 -25 -32 -20 -123 -18 -183 6 -28 11 -65 20 -83 20 -18 0 -42 7 -53 15 -12 8 -39 19 -60 24 -61 16 -144 47 -157 60 -6 6 -15 11 -21 11 -5 0 -28 9 -50 19 -118 55 -115 54 -133 40 -10 -8 -14 -9 -10 -2 4 6 3 14 -2 17 -5 4 -8 0 -7 -6z" fill="#000000"/>
<path d="M9582 6958 c-26 -19 -91 -89 -165 -178 -68 -83 -79 -137 -33 -176 15 -13 34 -24 43 -24 34 0 97 48 154 118 34 40 64 71 66 68 3 -3 0 -19 -6 -37 -23 -66 -6 -122 42 -138 24 -9 36 -7 63 9 50 31 124 157 124 212 0 31 -48 78 -80 78 -14 0 -35 -7 -47 -15 -20 -14 -21 -13 -26 28 -10 74 -71 99 -135 55z" fill="#000000"/>
<path d="M10390 6545 c-14 -8 -31 -14 -38 -15 -7 0 -39 -12 -70 -26 -74 -35 -132 -89 -132 -125 0 -43 20 -51 112 -48 79 4 83 3 81 -17 -1 -12 -20 -60 -43 -107 -22 -47 -40 -90 -40 -95 0 -5 -6 -15 -14 -21 -8 -7 -18 -31 -21 -53 -4 -23 -14 -56 -21 -74 -30 -71 -6 -118 88 -177 32 -20 61 -44 65 -53 8 -22 -15 -64 -83 -148 -63 -80 -73 -106 -50 -141 24 -37 72 -34 124 8 60 48 170 181 192 233 11 25 20 59 20 75 0 62 -53 124 -131 153 -25 9 -54 22 -64 30 -18 13 -17 16 15 72 87 155 190 365 196 401 16 99 -99 178 -186 128z" fill="#000000"/>
<path d="M4980 6153 c-75 -28 -220 -166 -241 -230 -9 -28 -8 -38 6 -60 29 -43 67 -28 165 67 47 44 102 96 123 115 38 35 49 73 24 93 -16 14 -58 22 -77 15z" fill="#000000"/>
<path d="M5159 6085 c-47 -35 -119 -116 -125 -142 -8 -32 12 -63 42 -63 18 0 47 20 96 68 82 78 95 104 73 138 -20 31 -43 30 -86 -1z" fill="#000000"/>
<path d="M7214 5819 c-17 -5 -50 -26 -73 -46 -35 -32 -46 -50 -61 -108 -11 -38 -20 -89 -20 -112 0 -33 -6 -48 -27 -68 -33 -30 -155 -101 -233 -135 -30 -13 -78 -34 -107 -47 -28 -13 -58 -23 -65 -23 -8 0 -18 -4 -23 -9 -12 -11 -162 -71 -178 -71 -7 0 -25 -7 -42 -16 -16 -8 -61 -19 -100 -24 -39 -5 -82 -13 -96 -18 -38 -15 -202 -24 -558 -31 -383 -8 -384 -8 -479 -113 -113 -124 -315 -320 -340 -329 -14 -5 -38 -7 -54 -4 -27 6 -28 8 -28 71 0 59 -3 67 -35 103 -94 104 -248 38 -249 -105 -1 -53 1 -56 49 -103 28 -27 68 -70 89 -97 58 -73 99 -96 176 -101 59 -4 71 -2 125 27 33 18 81 52 107 76 26 24 53 44 60 44 7 -1 24 -24 37 -53 47 -101 71 -146 108 -204 102 -157 253 -331 356 -411 55 -41 377 -212 402 -212 6 0 26 -9 46 -19 20 -11 54 -23 75 -27 22 -4 52 -13 67 -21 16 -8 61 -17 100 -20 40 -3 94 -11 121 -19 62 -17 611 -20 666 -3 19 6 82 14 140 19 101 9 204 36 275 74 17 9 36 16 43 16 8 0 25 9 39 20 14 11 31 20 38 20 6 0 20 9 30 20 10 11 22 20 27 20 20 0 157 111 218 176 123 131 188 237 235 381 23 71 25 89 24 277 0 110 -4 224 -10 251 -5 28 -14 91 -20 140 -6 50 -20 109 -30 132 -10 23 -19 48 -19 55 0 21 -78 166 -119 222 -44 58 -193 206 -209 206 -6 0 -17 6 -24 13 -25 24 -173 104 -207 112 -39 8 -92 32 -141 63 -37 23 -57 25 -106 11z m252 -294 c27 -19 72 -50 99 -69 71 -49 161 -139 187 -187 66 -119 77 -144 83 -192 4 -28 14 -62 22 -74 12 -18 15 -79 16 -330 l2 -308 -25 -50 c-40 -82 -132 -207 -194 -263 -109 -98 -287 -193 -398 -212 -29 -5 -69 -15 -88 -22 -27 -10 -132 -13 -455 -13 -368 0 -425 2 -460 17 -23 9 -63 19 -90 23 -48 8 -94 24 -186 68 l-46 22 -7 65 c-3 36 -6 129 -6 206 0 163 19 242 89 370 18 34 89 136 125 179 139 170 182 206 265 219 24 4 56 13 72 21 49 26 96 19 143 -20 46 -38 183 -109 261 -137 72 -25 136 -23 194 7 116 58 171 194 171 418 l0 119 40 52 c21 28 52 68 67 88 35 47 58 47 119 3z m-416 -319 c0 -18 -9 -63 -21 -99 l-21 -67 -74 0 c-55 0 -84 5 -111 20 -21 11 -46 20 -55 20 -10 0 -18 4 -18 9 0 12 49 51 64 51 6 0 58 24 116 53 58 30 108 52 113 50 4 -2 7 -19 7 -37z m-1041 -322 c4 -4 -5 -18 -71 -103 -27 -34 -48 -63 -48 -66 0 -2 -16 -29 -35 -59 -19 -30 -35 -59 -35 -63 0 -5 -9 -25 -19 -44 -49 -91 -68 -293 -42 -437 7 -41 10 -76 8 -79 -17 -16 -90 31 -167 107 -117 115 -260 285 -248 295 1 1 22 12 45 24 51 26 59 47 38 108 -17 50 -15 80 10 163 8 25 17 71 20 102 l6 57 157 4 c154 3 373 -2 381 -9z m-682 -81 c-6 -103 -31 -183 -56 -183 -9 0 -36 14 -59 31 -58 42 -58 78 -1 134 23 22 53 55 67 73 13 17 31 32 40 32 12 0 14 -13 9 -87z" fill="#000000"/>
<path d="M5320 5760 c-19 -11 -49 -19 -65 -20 -17 0 -47 -9 -68 -20 -20 -11 -49 -20 -65 -20 -15 0 -45 -9 -67 -20 -22 -11 -47 -20 -57 -20 -59 0 -155 -81 -178 -150 -8 -23 -10 -53 -5 -76 14 -79 158 -168 235 -146 19 6 55 13 80 17 25 4 54 13 65 19 11 7 42 16 69 19 27 4 59 13 70 20 12 8 34 17 49 21 86 21 192 109 221 184 25 67 21 79 -49 148 l-65 64 -68 0 c-47 -1 -78 -7 -102 -20z" fill="#000000"/>
<path d="M428 4928 c-122 -52 -63 -185 90 -204 31 -3 73 -13 92 -21 19 -8 71 -17 115 -20 69 -5 83 -3 103 14 31 25 41 97 19 139 -23 44 -110 84 -183 84 -33 0 -86 7 -117 15 -69 18 -61 18 -119 -7z" fill="#000000"/>
<path d="M759 4506 c-6 -6 -209 -33 -302 -41 -43 -4 -102 -15 -132 -26 -30 -10 -63 -19 -73 -19 -10 0 -32 -15 -50 -33 -32 -33 -42 -72 -28 -114 10 -31 102 -76 141 -70 16 3 73 12 125 21 52 8 131 22 175 30 44 9 108 15 143 16 50 0 73 6 110 27 52 29 81 60 82 85 0 35 -38 104 -64 116 -25 11 -117 17 -127 8z" fill="#000000"/>
<path d="M795 4115 c-16 -7 -59 -25 -95 -41 -69 -29 -133 -64 -249 -136 -79 -49 -96 -101 -54 -165 29 -44 142 -54 200 -17 12 8 28 14 36 14 7 0 30 9 52 20 21 11 54 23 72 26 18 3 37 12 44 20 6 8 19 14 29 14 22 0 91 55 107 85 21 39 0 134 -37 168 -33 30 -59 33 -105 12z" fill="#000000"/>
<path d="M8873 2359 c-35 -10 -110 -89 -119 -125 -3 -12 1 -36 10 -52 9 -17 16 -38 16 -47 0 -9 19 -48 42 -88 l43 -72 5 -360 c3 -242 9 -367 16 -380 7 -11 15 -65 19 -120 4 -55 15 -129 26 -164 10 -35 19 -77 19 -95 0 -17 9 -58 19 -91 11 -33 24 -78 29 -100 21 -89 52 -158 109 -241 38 -56 36 -76 -8 -94 -16 -7 -29 -16 -29 -21 0 -5 -6 -9 -12 -9 -12 0 -76 -40 -108 -68 -8 -6 -44 -35 -78 -62 -88 -69 -182 -152 -182 -162 0 -4 72 -8 160 -8 88 0 160 3 160 8 0 4 30 30 67 57 83 62 368 352 368 374 0 13 -9 15 -50 13 -44 -3 -56 1 -88 27 -41 32 -81 98 -92 152 -4 19 -13 43 -20 54 -7 11 -16 48 -20 82 -4 33 -13 73 -21 89 -8 15 -19 69 -24 119 -6 49 -17 115 -25 145 -15 55 -20 145 -9 174 5 14 48 -56 97 -159 20 -41 61 -78 84 -73 15 3 18 13 16 70 0 37 -8 88 -17 115 -8 26 -18 91 -22 143 -4 52 -12 106 -19 120 -7 14 -15 53 -18 88 -4 35 -12 73 -19 85 -13 24 -40 178 -33 186 3 2 17 -1 32 -8 16 -7 51 -17 78 -21 28 -5 68 -15 90 -24 22 -8 61 -15 87 -16 26 0 70 -9 98 -20 37 -15 75 -20 143 -21 51 0 126 -7 167 -15 49 -10 169 -17 350 -21 243 -5 283 -3 340 12 36 10 88 21 115 25 28 4 64 14 80 23 17 9 41 17 55 17 14 0 41 8 60 19 19 10 53 21 74 25 21 4 48 13 60 21 12 7 38 16 59 19 72 13 129 93 92 130 -21 20 -71 21 -110 0 -44 -24 -133 -54 -190 -66 -27 -5 -63 -16 -80 -25 -16 -8 -69 -19 -118 -24 -48 -5 -98 -14 -110 -21 -12 -7 -75 -14 -142 -16 -112 -3 -179 2 -332 28 -35 5 -89 14 -120 19 -32 4 -71 13 -88 19 -92 31 -134 44 -169 53 -22 5 -51 16 -65 24 -14 7 -53 25 -86 40 -60 26 -68 30 -134 68 -20 11 -52 29 -71 39 -19 10 -48 27 -65 38 -16 11 -43 27 -59 36 -16 9 -34 20 -40 25 -6 5 -45 31 -86 59 -81 53 -145 68 -207 49z" fill="#000000"/>
<path d="M6869 1785 c-37 -12 -55 -26 -94 -77 -26 -34 -52 -76 -56 -92 -4 -17 -14 -50 -21 -73 -22 -75 18 -126 85 -109 25 6 63 60 85 124 6 17 29 55 51 85 46 61 52 101 21 135 -12 12 -22 22 -23 21 -1 0 -23 -7 -48 -14z" fill="#000000"/>
<path d="M7052 1656 c-21 -19 -51 -60 -66 -91 -16 -30 -32 -58 -37 -61 -5 -3 -13 -22 -19 -43 -21 -79 29 -135 88 -98 34 20 133 191 139 239 7 44 -17 88 -47 88 -11 0 -37 -15 -58 -34z" fill="#000000"/>
</g>
</svg>